Coordinates
version=1
nRows=11
nColumns=40
inDegrees=yes

Units are S.I. units (second, meters, Newtons, ...)
If the header above contains a line with 'inDegrees', this indicates whether rotational values are in degrees (yes) or radians (no).

endheader
time	pelvis_tilt	pelvis_list	pelvis_rotation	pelvis_tx	pelvis_ty	pelvis_tz	hip_flexion_r	hip_adduction_r	hip_rotation_r	knee_angle_r	knee_angle_r_beta	ankle_angle_r	subtalar_angle_r	mtp_angle_r	hip_flexion_l	hip_adduction_l	hip_rotation_l	knee_angle_l	knee_angle_l_beta	ankle_angle_l	subtalar_angle_l	mtp_angle_l	lumbar_extension	lumbar_bending	lumbar_rotation	arm_flex_r	arm_add_r	arm_rot_r	elbow_flex_r	pro_sup_r	wrist_flex_r	wrist_dev_r	arm_flex_l	arm_add_l	arm_rot_l	elbow_flex_l	pro_sup_l	wrist_flex_l	wrist_dev_l
      3.26000000	    -34.65883181	      5.12337338	      3.67792556	     -0.44489415	      0.61948879	     -0.90795985	    102.03613309	    -15.55885006	     12.61111587	    102.24719739	      1.78455025	     36.86978802	      0.00000000	      0.00000000	    100.93981427	    -10.26881733	     -0.12022415	     98.95820845	      1.72714656	     32.69544253	      0.00000000	      0.00000000	    -33.58339906	     -5.10452892	     -1.96291478	    -33.91661965	    -52.76824820	     22.11093004	    105.28907013	     88.10739101	      0.00000000	      0.00000000	      6.03694207	    -67.35737945	     64.31133984	    110.04916758	     88.12151607	      0.00000000	      0.00000000
      3.26500000	    -34.69783468	      5.14503033	      3.64777788	     -0.44508691	      0.61942336	     -0.90788246	    102.09851025	    -15.50162644	     12.63171331	    102.23199021	      1.78428483	     36.82236266	      0.00000000	      0.00000000	    100.98224649	    -10.31931579	     -0.14389739	     98.94023852	      1.72683292	     32.66464205	      0.00000000	      0.00000000	    -33.53467991	     -5.13454603	     -2.82996646	    -31.97333744	    -53.53894317	     24.16453478	    105.18104577	     88.11482332	      0.00000000	      0.00000000	      2.07095907	    -67.42929239	     60.32808609	    110.20137858	     88.11921108	      0.00000000	      0.00000000
      3.27000000	    -34.71892103	      5.13644149	      3.73100295	     -0.44534570	      0.61932909	     -0.90812059	    102.14852249	    -15.59083457	     12.66333708	    102.24227460	      1.78446433	     36.81708393	      0.00000000	      0.00000000	    101.02977186	    -10.21488640	     -0.15120858	     98.92483142	      1.72656402	     32.66106389	      0.00000000	      0.00000000	    -33.50347246	     -5.09789531	     -2.08035445	    -33.80165514	    -52.80169506	     22.22748024	    105.27733182	     88.10221972	      0.00000000	      0.00000000	      5.71266369	    -67.39485550	     64.01333104	    110.06190601	     88.12196926	      0.00000000	      0.00000000
      3.27500000	    -34.69115133	      5.17331347	      3.63952989	     -0.44536903	      0.61937392	     -0.90791594	    102.11879748	    -15.47738455	     12.68406928	    102.22222251	      1.78411435	     36.82127480	      0.00000000	      0.00000000	    100.99079022	    -10.34601210	     -0.19779983	     98.93982912	      1.72682578	     32.68086211	      0.00000000	      0.00000000	    -33.52688671	     -5.16836506	     -2.86200649	    -31.95601081	    -53.51794623	     24.18045507	    105.17451604	     88.11502777	      0.00000000	      0.00000000	      1.87382344	    -67.45108621	     60.12195413	    110.24626035	     88.12064386	      0.00000000	      0.00000000
      3.28000000	    -34.65511059	      5.12802869	      3.63478120	     -0.44552271	      0.61937350	     -0.90790678	    102.07648445	    -15.46684021	     12.64307402	    102.22125171	      1.78409741	     36.83544313	      0.00000000	      0.00000000	    100.99066707	    -10.34044170	     -0.13370315	     98.94745282	      1.72695884	     32.65234592	      0.00000000	      0.00000000	    -33.55067093	     -5.14141437	     -1.95833306	    -33.86046503	    -52.76585632	     22.17253735	    105.27815553	     88.11126398	      0.00000000	      0.00000000	      5.88319357	    -67.39523241	     64.18669892	    110.08516410	     88.12056257	      0.00000000	      0.00000000
      3.28500000	    -34.66925949	      5.13949805	      3.67354082	     -0.44573371	      0.61932215	     -0.90802354	    102.11567816	    -15.49888055	     12.68040888	    102.22234044	      1.78411641	     36.81192006	      0.00000000	      0.00000000	    101.01382285	    -10.29690314	     -0.16193467	     98.93077302	      1.72666772	     32.62213164	      0.00000000	      0.00000000	    -33.52879511	     -5.13219051	     -1.99243975	    -33.88638149	    -52.75717374	     22.14346836	    105.27950169	     88.10917786	      0.00000000	      0.00000000	      5.88089665	    -67.39344101	     64.19524913	    110.08742147	     88.11438179	      0.00000000	      0.00000000
      3.29000000	    -34.73146581	      5.08361621	      3.75435553	     -0.44615098	      0.61914418	     -0.90824215	    102.21089264	    -15.56458649	     12.66767163	    102.21233685	      1.78394181	     36.64739334	      0.00000000	      0.00000000	    101.13778782	    -10.19553090	     -0.11256568	     98.90999923	      1.72630515	     32.51145634	      0.00000000	      0.00000000	    -33.47992326	     -5.02390323	     -2.18519065	    -33.74551793	    -52.91553342	     22.24673525	    105.40290149	     88.12562163	      0.00000000	      0.00000000	      4.85842546	    -67.41907153	     63.10207217	    110.19433861	     88.15456697	      0.00000000	      0.00000000
      3.29500000	    -34.77618776	      5.13018386	      3.67159164	     -0.44625228	      0.61905421	     -0.90798789	    102.26310036	    -15.43047452	     12.72177029	    102.19472302	      1.78363439	     36.76133805	      0.00000000	      0.00000000	    101.17349381	    -10.30911971	     -0.14726490	     98.91925765	      1.72646674	     32.57436476	      0.00000000	      0.00000000	    -33.39747550	     -5.13832516	     -2.83082730	    -32.05483938	    -53.48555445	     24.09079466	    105.18846758	     88.10814318	      0.00000000	      0.00000000	      1.97717551	    -67.48898825	     60.26457679	    110.25935286	     88.12142182	      0.00000000	      0.00000000
      3.30000000	    -34.76349420	      5.14628293	      3.68630588	     -0.44649605	      0.61901923	     -0.90812839	    102.28314089	    -15.44890005	     12.75028660	    102.19455678	      1.78363149	     36.75494589	      0.00000000	      0.00000000	    101.17463719	    -10.28920467	     -0.17696822	     98.90875016	      1.72628335	     32.57041460	      0.00000000	      0.00000000	    -33.41846424	     -5.14464972	     -1.98848500	    -34.01164452	    -52.72390919	     21.99342673	    105.32556654	     88.11135633	      0.00000000	      0.00000000	      5.77411774	    -67.42720902	     64.08557522	    110.13753362	     88.11996338	      0.00000000	      0.00000000
      3.30500000	    -34.74208484	      5.14341368	      3.68226180	     -0.44657423	      0.61904481	     -0.90810906	    102.26482693	    -15.43801844	     12.75254093	    102.19044132	      1.78355967	     36.73866150	      0.00000000	      0.00000000	    101.15891554	    -10.30279853	     -0.17790167	     98.90747846	      1.72626115	     32.54240739	      0.00000000	      0.00000000	    -33.43045909	     -5.15477376	     -1.97203826	    -33.95734396	    -52.71408087	     22.07065800	    105.28319715	     88.10644021	      0.00000000	      0.00000000	      5.91436595	    -67.43426154	     64.24595083	    110.14101299	     88.11810660	      0.00000000	      0.00000000
      3.31000000	    -34.81164208	      5.10626418	      3.80215512	     -0.44691294	      0.61888984	     -0.90845226	    102.36095777	    -15.55837413	     12.76165198	    102.19013348	      1.78355429	     36.68152935	      0.00000000	      0.00000000	    101.26675331	    -10.15224205	     -0.16295128	     98.87377756	      1.72567296	     32.52653284	      0.00000000	      0.00000000	    -33.34570941	     -5.04973665	     -2.00806753	    -34.09691476	    -52.70365731	     21.91753673	    105.32142471	     88.10719946	      0.00000000	      0.00000000	      6.06994400	    -67.40494395	     64.42359650	    110.13491568	     88.11701456	      0.00000000	      0.00000000
